<svg width="65.000000" height="17.000000" viewBox="0 0 65 17" fill="none" xmlns="http://www.w3.org/2000/svg" xmlns:xlink="http://www.w3.org/1999/xlink">
	<desc>
			Created with Pixso.
	</desc>
	<defs>
		<clipPath id="clip109_466">
			<rect id="logo-color 1" width="65.000000" height="17.000000" transform="translate(-0.500000 -0.500000)" fill="white" fill-opacity="0"/>
		</clipPath>
	</defs>
	<rect id="logo-color 1" width="65.000000" height="17.000000" transform="translate(-0.500000 -0.500000)" fill="#FFFFFF" fill-opacity="0"/>
	<g clip-path="url(#clip109_466)">
		<path id="Vector" d="M32.92 3.97C32.17 3.41 31.24 3.07 30.23 3.07C27.75 3.07 25.74 5.08 25.74 7.55C25.74 10.02 27.75 12.02 30.23 12.02C32.71 12.02 34.72 10.02 34.72 7.55L34.72 3.07L32.92 3.07L32.92 3.97ZM30.23 10.23C31.72 10.23 32.92 9.03 32.92 7.55C32.92 6.07 31.72 4.86 30.23 4.86C28.74 4.86 27.54 6.07 27.54 7.55C27.54 9.03 28.74 10.23 30.23 10.23Z" fill="#FFFFFF" fill-opacity="1.000000" fill-rule="evenodd"/>
		<path id="Vector" d="M32.72 13.05C32.85 12.72 32.92 12.37 32.92 12.02L34.72 12.02C34.72 12.61 34.6 13.19 34.37 13.73C34.36 13.76 34.35 13.79 34.34 13.81C34.12 14.32 33.8 14.79 33.4 15.18C32.99 15.6 32.49 15.93 31.95 16.15C31.4 16.38 30.82 16.5 30.23 16.5C29.64 16.5 29.06 16.38 28.51 16.15C27.97 15.93 27.47 15.6 27.06 15.18C26.66 14.79 26.34 14.32 26.12 13.81C26.11 13.79 26.1 13.76 26.08 13.73C25.86 13.19 25.74 12.61 25.74 12.02L27.54 12.02L27.54 12.02C27.54 12.37 27.61 12.72 27.74 13.05C27.88 13.37 28.08 13.67 28.33 13.92C28.58 14.17 28.87 14.37 29.2 14.5C29.53 14.64 29.88 14.71 30.23 14.71C30.58 14.71 30.93 14.64 31.26 14.5C31.59 14.37 31.88 14.17 32.13 13.92C32.38 13.67 32.58 13.37 32.72 13.05Z" fill="#FFFFFF" fill-opacity="1.000000" fill-rule="nonzero"/>
		<path id="Vector" d="M40.1 10.23C41.59 10.23 42.79 9.03 42.79 7.55C42.79 6.07 41.59 4.86 40.1 4.86C38.61 4.86 37.41 6.07 37.41 7.55C37.41 9.03 38.61 10.23 40.1 10.23ZM40.1 12.02C42.58 12.02 44.59 10.02 44.59 7.55C44.59 5.08 42.58 3.07 40.1 3.07C37.62 3.07 35.61 5.08 35.61 7.55C35.61 10.02 37.62 12.02 40.1 12.02Z" fill="#FFFFFF" fill-opacity="1.000000" fill-rule="evenodd"/>
		<path id="Vector" d="M49.97 10.23C51.46 10.23 52.66 9.03 52.66 7.55C52.66 6.07 51.46 4.86 49.97 4.86C48.48 4.86 47.28 6.07 47.28 7.55C47.28 9.03 48.48 10.23 49.97 10.23ZM49.97 12.02C52.45 12.02 54.46 10.02 54.46 7.55C54.46 5.08 52.45 3.07 49.97 3.07C47.49 3.07 45.48 5.08 45.48 7.55C45.48 10.02 47.49 12.02 49.97 12.02Z" fill="#FFFFFF" fill-opacity="1.000000" fill-rule="evenodd"/>
		<path id="Vector" d="M62.53 -0.5L62.53 3.97C61.78 3.41 60.85 3.07 59.84 3.07C57.36 3.07 55.35 5.08 55.35 7.55C55.35 10.02 57.36 12.02 59.84 12.02C62.32 12.02 64.33 10.02 64.33 7.55L64.33 -0.5L62.53 -0.5ZM62.53 7.55C62.53 6.07 61.33 4.86 59.84 4.86C58.35 4.86 57.15 6.07 57.15 7.55C57.15 9.03 58.35 10.23 59.84 10.23C61.33 10.23 62.53 9.03 62.53 7.55Z" fill="#FFFFFF" fill-opacity="1.000000" fill-rule="evenodd"/>
		<path id="Vector" d="M1.29 11.13C2.04 11.69 2.97 12.02 3.98 12.02C6.46 12.02 8.47 10.02 8.47 7.55C8.47 5.08 6.46 3.07 3.98 3.07C1.5 3.07 -0.5 5.08 -0.5 7.55L-0.5 15.6L1.29 15.6L1.29 11.13ZM6.67 7.55C6.67 9.03 5.47 10.23 3.98 10.23C2.5 10.23 1.29 9.03 1.29 7.55C1.29 6.07 2.5 4.86 3.98 4.86C5.47 4.86 6.67 6.07 6.67 7.55Z" fill="#37D59C" fill-opacity="1.000000" fill-rule="evenodd"/>
		<path id="Vector" d="M22.38 12.02L22.38 -0.5L24.17 -0.5L24.17 12.02L22.38 12.02Z" fill="#37D59C" fill-opacity="1.000000" fill-rule="evenodd"/>
		<path id="Vector" d="M19.68 1.73C20.3 1.73 20.81 1.23 20.81 0.61C20.81 0 20.3 -0.5 19.68 -0.5C19.06 -0.5 18.56 0 18.56 0.61C18.56 1.23 19.06 1.73 19.68 1.73Z" fill="#37D59C" fill-opacity="1.000000" fill-rule="nonzero"/>
		<path id="Vector" d="M18.79 3.07L18.79 12.02L20.58 12.02L20.58 3.07L18.79 3.07Z" fill="#37D59C" fill-opacity="1.000000" fill-rule="nonzero"/>
		<path id="Vector" d="M9.59 7.32L9.59 12.02L11.39 12.02L11.39 7.32C11.39 7.32 11.39 7.32 11.39 7.32C11.39 5.96 12.49 4.86 13.85 4.86C14.72 4.86 15.42 5.56 15.42 6.43L15.42 12.02L17.22 12.02L17.22 6.43C17.22 4.58 15.71 3.07 13.85 3.07C12.93 3.07 12.08 3.36 11.39 3.86L11.39 -0.5L9.59 -0.5L9.59 7.32C9.59 7.32 9.59 7.32 9.59 7.32Z" fill="#37D59C" fill-opacity="1.000000" fill-rule="nonzero"/>
	</g>
</svg>
