<svg width="11.000000" height="19.000000" viewBox="0 0 11 19" fill="none" xmlns="http://www.w3.org/2000/svg" xmlns:xlink="http://www.w3.org/1999/xlink">
	<desc>
			Created with Pixso.
	</desc>
	<defs/>
	<path id="ok" d="M5.03 9.31C7.7 9.31 9.87 7.13 9.87 4.47C9.87 1.8 7.7 -0.38 5.03 -0.38C2.33 -0.38 0.15 1.8 0.15 4.47C0.15 7.13 2.33 9.31 5.03 9.31ZM5.03 2.46C6.13 2.46 7.03 3.36 7.03 4.47C7.03 5.57 6.13 6.47 5.03 6.47C3.92 6.47 3.02 5.57 3.02 4.47C3 3.36 3.89 2.46 5.03 2.46ZM6.97 13.29C7.96 13.05 8.91 12.68 9.78 12.12C10.45 11.72 10.65 10.82 10.22 10.15C9.81 9.48 8.91 9.28 8.25 9.72C6.27 10.96 3.69 10.96 1.72 9.72C1.05 9.31 0.18 9.48 -0.25 10.15C-0.63 10.82 -0.43 11.69 0.24 12.1C1.11 12.65 2.07 13.02 3.05 13.26L0.35 15.95C-0.2 16.51 -0.2 17.41 0.35 17.96C0.64 18.25 0.99 18.36 1.37 18.36C1.75 18.36 2.1 18.22 2.39 17.96L5.06 15.29L7.72 17.96C8.28 18.51 9.18 18.51 9.73 17.96C10.28 17.41 10.28 16.51 9.73 15.95L6.97 13.29Z" fill="#FFFFFF" fill-opacity="1.000000" fill-rule="evenodd"/>
</svg>
