<svg width="18.000000" height="11.000000" viewBox="0 0 18 11" fill="none" xmlns="http://www.w3.org/2000/svg" xmlns:xlink="http://www.w3.org/1999/xlink">
	<desc>
			Created with Pixso.
	</desc>
	<defs/>
	<path id="Vector" d="M9.8 10C3.65 10 0.14 5.87 0 -1L3.09 -1C3.19 4.04 5.45 6.17 7.25 6.61L7.25 -1L10.15 -1L10.15 3.35C11.93 3.16 13.8 1.18 14.43 -1L17.32 -1C17.08 0.13 16.61 1.2 15.94 2.14C15.26 3.08 14.39 3.88 13.38 4.48C14.51 5.03 15.5 5.8 16.29 6.75C17.09 7.7 17.67 8.81 18 10L14.8 10C14.12 7.91 12.41 6.29 10.15 6.07L10.15 10L9.8 10L9.8 10Z" fill="#FFFFFF" fill-opacity="1.000000" fill-rule="nonzero"/>
</svg>
